<mxfile host="app.diagrams.net" modified="2022-11-02T09:41:08.361Z" agent="5.0 (X11; Linux x86_64) AppleWebKit/537.36 (KHTML, like Gecko) Chrome/106.0.0.0 Safari/537.36" etag="SGamrHh8h3UVTQ0hUfzF" version="20.5.1" type="github">
  <diagram id="qk2TiaLinTYBjkCV78vX" name="第 1 页">
    <mxGraphModel dx="1422" dy="748" grid="1" gridSize="10" guides="1" tooltips="1" connect="1" arrows="1" fold="1" page="1" pageScale="1" pageWidth="827" pageHeight="1169" math="0" shadow="0">
      <root>
        <mxCell id="0" />
        <mxCell id="1" parent="0" />
        <mxCell id="VvvL69YPjGMQiK11FjBB-1" style="edgeStyle=orthogonalEdgeStyle;rounded=0;orthogonalLoop=1;jettySize=auto;html=1;exitX=0.5;exitY=1;exitDx=0;exitDy=0;entryX=0.5;entryY=0;entryDx=0;entryDy=0;" edge="1" parent="1" source="VvvL69YPjGMQiK11FjBB-2" target="VvvL69YPjGMQiK11FjBB-5">
          <mxGeometry relative="1" as="geometry" />
        </mxCell>
        <mxCell id="VvvL69YPjGMQiK11FjBB-2" value="任务配置" style="rounded=0;whiteSpace=wrap;html=1;" vertex="1" parent="1">
          <mxGeometry x="139" y="130" width="120" height="60" as="geometry" />
        </mxCell>
        <mxCell id="VvvL69YPjGMQiK11FjBB-3" style="edgeStyle=orthogonalEdgeStyle;rounded=0;orthogonalLoop=1;jettySize=auto;html=1;exitX=1;exitY=0.5;exitDx=0;exitDy=0;entryX=0;entryY=0.5;entryDx=0;entryDy=0;" edge="1" parent="1" source="VvvL69YPjGMQiK11FjBB-5" target="VvvL69YPjGMQiK11FjBB-8">
          <mxGeometry relative="1" as="geometry" />
        </mxCell>
        <mxCell id="VvvL69YPjGMQiK11FjBB-4" value="HTTPS" style="edgeLabel;html=1;align=center;verticalAlign=middle;resizable=0;points=[];" vertex="1" connectable="0" parent="VvvL69YPjGMQiK11FjBB-3">
          <mxGeometry x="-0.2667" y="3" relative="1" as="geometry">
            <mxPoint x="4" y="2" as="offset" />
          </mxGeometry>
        </mxCell>
        <mxCell id="VvvL69YPjGMQiK11FjBB-5" value="触发任务执行" style="rounded=0;whiteSpace=wrap;html=1;" vertex="1" parent="1">
          <mxGeometry x="139" y="240" width="120" height="60" as="geometry" />
        </mxCell>
        <mxCell id="VvvL69YPjGMQiK11FjBB-6" style="edgeStyle=orthogonalEdgeStyle;rounded=0;orthogonalLoop=1;jettySize=auto;html=1;exitX=0.5;exitY=1;exitDx=0;exitDy=0;entryX=1;entryY=0.5;entryDx=0;entryDy=0;" edge="1" parent="1" source="VvvL69YPjGMQiK11FjBB-8" target="VvvL69YPjGMQiK11FjBB-13">
          <mxGeometry relative="1" as="geometry" />
        </mxCell>
        <mxCell id="VvvL69YPjGMQiK11FjBB-7" value="HTTPS" style="edgeLabel;html=1;align=center;verticalAlign=middle;resizable=0;points=[];" vertex="1" connectable="0" parent="VvvL69YPjGMQiK11FjBB-6">
          <mxGeometry x="0.2261" y="-1" relative="1" as="geometry">
            <mxPoint as="offset" />
          </mxGeometry>
        </mxCell>
        <mxCell id="VvvL69YPjGMQiK11FjBB-8" value="获取网页内容" style="rounded=0;whiteSpace=wrap;html=1;" vertex="1" parent="1">
          <mxGeometry x="349" y="240" width="120" height="60" as="geometry" />
        </mxCell>
        <mxCell id="VvvL69YPjGMQiK11FjBB-9" value="储存或者更新记录" style="rounded=0;whiteSpace=wrap;html=1;" vertex="1" parent="1">
          <mxGeometry x="569" y="240" width="120" height="60" as="geometry" />
        </mxCell>
        <mxCell id="VvvL69YPjGMQiK11FjBB-10" style="edgeStyle=orthogonalEdgeStyle;rounded=0;orthogonalLoop=1;jettySize=auto;html=1;exitX=1;exitY=0.5;exitDx=0;exitDy=0;entryX=0.5;entryY=1;entryDx=0;entryDy=0;" edge="1" parent="1" source="VvvL69YPjGMQiK11FjBB-13" target="VvvL69YPjGMQiK11FjBB-9">
          <mxGeometry relative="1" as="geometry">
            <Array as="points">
              <mxPoint x="259" y="400" />
              <mxPoint x="629" y="400" />
            </Array>
          </mxGeometry>
        </mxCell>
        <mxCell id="VvvL69YPjGMQiK11FjBB-11" value="DB" style="edgeLabel;html=1;align=center;verticalAlign=middle;resizable=0;points=[];" vertex="1" connectable="0" parent="VvvL69YPjGMQiK11FjBB-10">
          <mxGeometry x="-0.2204" y="3" relative="1" as="geometry">
            <mxPoint y="2" as="offset" />
          </mxGeometry>
        </mxCell>
        <mxCell id="VvvL69YPjGMQiK11FjBB-12" style="edgeStyle=orthogonalEdgeStyle;rounded=0;orthogonalLoop=1;jettySize=auto;html=1;exitX=0.5;exitY=1;exitDx=0;exitDy=0;entryX=0.5;entryY=0;entryDx=0;entryDy=0;" edge="1" parent="1" source="VvvL69YPjGMQiK11FjBB-13" target="VvvL69YPjGMQiK11FjBB-14">
          <mxGeometry relative="1" as="geometry" />
        </mxCell>
        <mxCell id="VvvL69YPjGMQiK11FjBB-13" value="BS4解析HTML" style="rounded=0;whiteSpace=wrap;html=1;" vertex="1" parent="1">
          <mxGeometry x="139" y="350" width="120" height="60" as="geometry" />
        </mxCell>
        <mxCell id="VvvL69YPjGMQiK11FjBB-14" value="记录日志" style="rounded=0;whiteSpace=wrap;html=1;" vertex="1" parent="1">
          <mxGeometry x="139" y="455" width="120" height="60" as="geometry" />
        </mxCell>
        <mxCell id="VvvL69YPjGMQiK11FjBB-15" value="" style="endArrow=none;dashed=1;html=1;dashPattern=1 3;strokeWidth=2;rounded=0;" edge="1" parent="1">
          <mxGeometry width="50" height="50" relative="1" as="geometry">
            <mxPoint x="319" y="520" as="sourcePoint" />
            <mxPoint x="319" y="70" as="targetPoint" />
          </mxGeometry>
        </mxCell>
        <mxCell id="VvvL69YPjGMQiK11FjBB-16" value="" style="endArrow=none;dashed=1;html=1;dashPattern=1 3;strokeWidth=2;rounded=0;" edge="1" parent="1">
          <mxGeometry width="50" height="50" relative="1" as="geometry">
            <mxPoint x="529" y="520" as="sourcePoint" />
            <mxPoint x="529" y="70" as="targetPoint" />
          </mxGeometry>
        </mxCell>
        <mxCell id="VvvL69YPjGMQiK11FjBB-17" value="数据库" style="text;html=1;align=center;verticalAlign=middle;resizable=0;points=[];autosize=1;strokeColor=none;fillColor=none;" vertex="1" parent="1">
          <mxGeometry x="599" y="90" width="60" height="30" as="geometry" />
        </mxCell>
        <mxCell id="VvvL69YPjGMQiK11FjBB-18" value="第三方网站" style="text;html=1;align=center;verticalAlign=middle;resizable=0;points=[];autosize=1;strokeColor=none;fillColor=none;" vertex="1" parent="1">
          <mxGeometry x="369" y="90" width="80" height="30" as="geometry" />
        </mxCell>
        <mxCell id="VvvL69YPjGMQiK11FjBB-19" value="任务" style="text;html=1;align=center;verticalAlign=middle;resizable=0;points=[];autosize=1;strokeColor=none;fillColor=none;" vertex="1" parent="1">
          <mxGeometry x="169" y="90" width="50" height="30" as="geometry" />
        </mxCell>
      </root>
    </mxGraphModel>
  </diagram>
</mxfile>
